<?xml version="1.0" standalone="no"?>
<!DOCTYPE svg PUBLIC "-//W3C//DTD SVG 20010904//EN"
 "http://www.w3.org/TR/2001/REC-SVG-20010904/DTD/svg10.dtd">
<svg version="1.0" xmlns="http://www.w3.org/2000/svg"
 width="300.000000pt" height="300.000000pt" viewBox="0 0 300.000000 300.000000"
 preserveAspectRatio="xMidYMid meet">
<metadata>
Created by potrace 1.10, written by Peter Selinger 2001-2011
</metadata>
<g transform="translate(0.000000,300.000000) scale(0.100000,-0.100000)"
fill="#000000" stroke="none">
<path d="M1040 2979 c0 -5 34 -241 76 -525 41 -284 74 -518 72 -520 -2 -2 -22
3 -43 10 -22 7 -55 16 -72 19 -30 6 -33 4 -33 -17 0 -21 18 -88 35 -129 5 -12
3 -16 -6 -12 -11 4 -1035 155 -1051 155 -3 0 9 -27 25 -61 51 -107 70 -229 64
-419 -5 -174 -20 -256 -70 -380 -14 -33 -23 -60 -20 -60 3 0 237 34 520 75
284 41 519 75 523 75 5 0 2 -21 -6 -47 -21 -69 -19 -83 14 -83 15 1 51 9 80
19 47 16 52 16 48 2 -5 -16 -156 -1044 -156 -1061 0 -5 19 2 43 15 182 102
567 103 817 2 33 -14 60 -23 60 -21 0 7 -139 962 -149 1025 -16 93 -17 90 33
68 25 -11 66 -23 92 -28 l46 -9 -5 42 c-3 22 -8 49 -12 60 -7 16 -4 17 21 12
24 -5 987 -146 998 -146 2 0 -7 27 -21 60 -101 250 -100 635 2 818 13 23 21
42 18 42 -2 0 -236 -34 -520 -75 -283 -41 -518 -75 -522 -75 -4 0 0 24 9 53
10 28 20 67 24 85 l6 34 -42 -7 c-24 -4 -60 -14 -82 -21 -21 -8 -41 -12 -43
-10 -3 3 108 788 143 1008 l5 36 -60 -24 c-251 -102 -635 -101 -818 1 -24 13
-43 19 -43 14z m190 -137 c102 -23 454 -23 550 0 36 8 73 19 84 23 15 7 17 5
12 -11 -3 -10 -33 -228 -66 -484 -43 -328 -65 -467 -75 -472 -7 -5 -35 -26
-63 -47 l-49 -39 -6 56 c-7 78 -41 176 -84 241 l-36 55 -19 -25 c-52 -63 -108
-214 -108 -289 l0 -32 -52 38 c-29 21 -56 40 -60 44 -5 3 -35 213 -68 465 -33
253 -62 471 -65 484 -5 20 -3 22 12 17 10 -4 52 -15 93 -24z m311 -811 c51
-136 61 -289 25 -386 -8 -22 -15 -38 -16 -35 0 3 -2 46 -4 95 -3 138 -49 223
-75 143 -15 -47 -32 -185 -24 -204 4 -12 2 -15 -8 -12 -23 8 -40 105 -35 193
5 83 34 191 68 259 19 38 21 39 34 21 8 -10 23 -44 35 -74z m386 -145 c-47
-127 -120 -226 -168 -226 -34 0 -37 10 -10 34 28 26 56 95 44 107 -14 14 -89
-19 -143 -61 -36 -29 -38 -29 -33 -8 8 32 38 63 111 115 52 38 186 101 214
103 4 0 -3 -29 -15 -64z m-672 -29 c80 -51 115 -86 115 -115 l0 -26 -27 26
c-38 35 -140 91 -153 83 -13 -8 13 -70 50 -117 17 -20 30 -39 30 -42 0 -3 -13
-6 -30 -6 -24 0 -36 9 -61 43 -35 46 -94 166 -105 210 l-6 28 68 -26 c38 -14
91 -40 119 -58z m-890 -11 c99 -14 306 -41 460 -61 154 -20 280 -38 280 -38 0
-1 15 -21 33 -44 17 -23 32 -44 32 -47 0 -3 -11 -6 -25 -6 -37 0 -147 -43
-205 -80 l-52 -33 23 -19 c43 -35 164 -87 231 -99 l67 -12 -41 -46 c-22 -25
-47 -59 -55 -76 -9 -16 -16 -31 -17 -32 -1 -1 -173 -25 -381 -52 -209 -28
-425 -57 -480 -65 -55 -7 -101 -13 -103 -11 -2 2 4 27 12 56 23 81 39 280 31
399 -7 112 -30 252 -46 283 -9 16 -7 18 23 13 18 -3 114 -17 213 -30z m2500
17 c-30 -76 -40 -168 -39 -373 0 -208 8 -278 39 -354 7 -15 5 -17 -11 -12 -25
7 -855 116 -888 116 -21 0 -31 10 -51 50 -14 27 -38 65 -55 83 l-30 34 51 7
c68 9 169 48 226 87 l46 32 -24 20 c-41 34 -163 87 -227 99 l-61 11 31 43 c29
41 32 42 112 53 44 7 234 32 421 57 292 39 422 57 459 63 4 0 5 -7 1 -16z
m-1347 -145 c4 -84 4 -88 -17 -88 -11 0 -24 0 -28 0 -4 0 -8 10 -8 23 -2 36
13 166 21 178 14 23 28 -27 32 -113z m-240 41 c59 -40 112 -89 112 -105 0 -11
-11 -9 -96 11 -11 3 -79 125 -69 125 4 0 27 -14 53 -31z m456 -45 c-33 -46
-48 -58 -91 -73 -29 -10 -53 -17 -53 -16 0 27 31 72 66 96 47 32 106 60 113
53 3 -2 -13 -29 -35 -60z m-341 -99 c9 -4 17 -13 17 -21 0 -11 -20 -14 -91
-14 -87 0 -203 -21 -223 -40 -22 -21 143 -70 234 -70 56 0 67 -14 19 -24 -90
-18 -239 6 -352 57 l-71 31 70 32 c99 46 192 65 294 60 47 -3 93 -8 103 -11z
m493 4 c65 -12 210 -65 220 -80 14 -23 -174 -86 -282 -96 -74 -6 -204 12 -204
28 0 5 26 9 58 9 59 0 158 22 175 39 25 25 -100 61 -212 61 -66 0 -59 13 19
34 67 18 146 20 226 5z m-313 -60 c38 -41 36 -82 -7 -125 -45 -45 -95 -47
-137 -5 -50 51 -34 127 35 156 41 18 75 10 109 -26z m-197 -25 c-3 -9 -6 -22
-6 -29 0 -14 -33 -13 -147 7 -109 18 -75 33 81 36 67 2 77 0 72 -14z m399 7
c46 -10 17 -21 -74 -28 -78 -6 -81 -5 -81 16 0 19 5 21 63 20 34 -1 76 -4 92
-8z m-77 -150 c38 -42 82 -103 82 -113 0 -11 -27 3 -113 60 -74 48 -86 64 -68
86 17 20 68 2 99 -33z m-309 -3 c-14 -36 -41 -60 -102 -95 -43 -26 -47 -27
-47 -15 0 15 113 134 134 142 29 11 31 6 15 -32z m-122 -18 c-42 -49 -84 -126
-75 -136 9 -9 55 10 123 52 l55 33 0 -35 c0 -30 -7 -39 -62 -80 -64 -48 -160
-97 -212 -110 -28 -7 -29 -6 -22 22 27 105 156 294 202 294 l26 0 -35 -40z
m560 -12 c56 -75 79 -115 108 -192 l25 -67 -22 6 c-13 4 -63 26 -113 50 -101
49 -220 148 -214 177 3 15 14 11 67 -26 68 -48 119 -72 129 -62 10 10 -31 89
-67 130 l-32 36 40 0 c36 0 43 -5 79 -52z m-371 -67 c4 -101 20 -171 39 -171
21 0 55 124 55 200 0 76 14 93 27 33 23 -109 -1 -272 -56 -388 l-29 -60 -26
56 c-58 124 -79 275 -55 389 9 40 14 48 26 42 11 -7 16 -32 19 -101z m71 12
c-3 -43 -11 -94 -19 -113 l-13 -35 -6 50 c-4 28 -8 76 -8 107 -1 51 1 57 22
61 12 2 24 5 26 6 2 0 1 -34 -2 -76z m181 -123 l33 -25 64 -490 c36 -269 67
-501 70 -514 5 -18 3 -22 -9 -18 -110 43 -457 56 -616 24 -47 -9 -95 -20 -108
-23 -20 -6 -22 -4 -17 17 6 26 125 934 125 954 0 11 110 100 114 93 1 -2 7
-34 13 -71 12 -69 63 -192 100 -236 l20 -24 37 59 c46 74 76 167 83 261 l6 72
26 -27 c14 -15 41 -38 59 -52z"/>
<path d="M1180 2812 c0 -9 9 -49 19 -87 11 -39 25 -106 31 -150 6 -44 22 -136
36 -205 13 -69 30 -172 39 -230 8 -58 21 -134 28 -169 l13 -64 28 77 c24 66
105 196 121 196 10 0 55 -54 83 -100 15 -25 37 -74 48 -109 15 -43 24 -57 27
-45 11 37 29 139 47 258 29 192 69 412 97 529 14 59 23 111 19 114 -3 3 -32
-6 -63 -20 -96 -43 -219 -70 -286 -63 -59 6 -234 59 -251 77 -16 15 -36 10
-36 -9z m54 -30 c3 -5 2 -19 -1 -32 -6 -22 -7 -23 -14 -4 -4 10 -8 25 -8 32
-1 14 15 16 23 4z m552 -8 c-3 -9 -6 -23 -6 -32 -1 -15 -2 -15 -11 1 -12 21
-5 47 12 47 6 0 8 -7 5 -16z m-403 -40 c69 -14 87 -22 87 -36 0 -16 -3 -16
-42 2 -52 24 -111 26 -132 4 -18 -17 -21 -50 -6 -59 6 -3 10 -11 10 -18 0 -28
-32 24 -37 61 -6 48 2 76 20 69 8 -3 53 -13 100 -23z m355 -11 c3 -31 -24
-111 -34 -101 -2 3 1 17 7 32 27 59 -63 88 -144 47 -34 -17 -37 -17 -37 -2 0
13 21 21 93 38 50 11 97 20 102 19 6 -2 11 -16 13 -33z m-228 -142 c0 -76 -4
-132 -10 -136 -6 -4 -10 42 -10 129 0 84 4 136 10 136 6 0 10 -50 10 -129z
m-124 87 c-34 -48 -10 -133 53 -192 17 -17 31 -38 31 -49 0 -17 -3 -16 -30 7
-17 14 -49 30 -70 36 -30 8 -40 16 -40 31 0 12 -5 19 -12 16 -15 -4 -12 -61 5
-92 5 -11 32 -40 59 -66 41 -38 48 -51 48 -83 0 -20 -5 -47 -11 -58 -11 -21
-12 -21 -25 -3 -8 10 -14 33 -14 51 0 43 -16 83 -35 90 -24 10 -29 -2 -15 -35
14 -34 16 -88 4 -122 -8 -25 -14 4 -67 307 l-23 131 33 -35 c18 -18 37 -31 43
-27 13 8 13 41 -1 66 -17 33 -4 49 41 49 41 0 41 0 26 -22z m300 9 c2 -7 -2
-26 -10 -42 -11 -21 -12 -34 -5 -48 10 -18 11 -18 32 0 12 10 27 25 34 33 17
20 17 20 -13 -148 -14 -81 -31 -181 -38 -222 -12 -71 -14 -73 -25 -47 -15 38
-14 71 4 114 18 43 18 43 1 43 -22 0 -46 -40 -46 -77 0 -38 -16 -83 -29 -83
-15 0 -33 65 -25 95 4 15 31 50 61 79 48 46 56 59 61 101 3 35 2 47 -7 44 -7
-3 -13 -9 -13 -14 0 -19 -19 -33 -52 -39 -19 -4 -46 -18 -60 -33 l-26 -26 0
26 c0 17 10 33 29 46 33 24 71 95 71 132 0 13 -7 36 -14 52 l-15 27 40 0 c24
0 42 -5 45 -13z m-241 -17 c19 -21 14 -50 -9 -50 -15 0 -26 21 -26 51 0 24 12
24 35 -1z m145 -9 c0 -22 -25 -45 -40 -36 -16 10 -12 43 7 54 22 12 33 5 33
-18z m-173 -56 c8 -9 23 -13 32 -10 14 4 16 -3 16 -40 0 -25 -3 -45 -6 -45
-14 0 -69 84 -69 105 0 9 11 5 27 -10z m159 -56 c-15 -21 -31 -39 -36 -39 -6
0 -10 21 -10 46 0 40 2 45 19 39 11 -3 24 1 32 11 27 33 23 -14 -5 -57z m-166
-113 c33 -15 50 -51 49 -106 l0 -45 -14 40 c-8 24 -33 56 -60 80 -25 22 -45
44 -45 48 0 9 30 2 70 -17z m243 11 c-4 -8 -25 -29 -47 -48 -21 -18 -47 -52
-57 -74 l-18 -40 0 40 c-1 51 29 102 72 120 42 18 60 19 50 2z m-139 -147 c7
-64 4 -80 -20 -80 -15 0 -20 72 -8 118 11 38 21 24 28 -38z m-43 -87 c7 -7 -2
-24 -27 -50 -19 -21 -48 -64 -64 -96 -30 -63 -31 -62 -46 36 -6 47 10 127 26
127 4 0 12 -11 18 -25 20 -43 53 -29 68 30 7 24 9 26 12 10 2 -11 8 -25 13
-32z m110 -28 c8 -5 21 2 35 19 l24 27 15 -38 c13 -31 14 -49 5 -105 -5 -37
-10 -70 -10 -75 0 -4 -14 19 -31 52 -16 33 -46 76 -65 95 -31 33 -33 38 -22
62 l13 26 11 -28 c7 -15 18 -31 25 -35z"/>
<path d="M178 1855 c-3 -3 7 -38 23 -78 15 -40 37 -119 49 -175 l20 -102 -20
-102 c-12 -56 -34 -135 -50 -175 -15 -40 -24 -76 -19 -79 5 -3 51 6 102 20 50
14 202 46 337 71 405 76 461 88 466 97 3 4 -1 8 -9 8 -31 0 -174 81 -212 119
l-39 41 39 41 c38 38 181 119 212 119 8 0 12 4 9 8 -5 9 -61 21 -466 97 -135
25 -286 57 -335 71 -100 26 -99 26 -107 19z m102 -46 c3 0 -8 -5 -25 -10 -20
-6 -32 -5 -37 4 -14 22 -8 26 24 16 18 -5 35 -9 38 -10z m353 -75 c182 -35
196 -40 170 -51 -41 -18 -73 -16 -116 7 l-37 20 0 -25 c0 -29 21 -41 92 -50
63 -8 79 -29 39 -49 -16 -9 -38 -16 -48 -16 -28 0 -69 32 -103 79 -31 42 -80
71 -120 71 -25 0 -27 -26 -2 -32 12 -4 23 -21 30 -50 6 -24 21 -57 32 -71 20
-26 21 -27 3 -27 -11 0 -42 22 -70 49 -61 58 -104 72 -154 47 -18 -9 -34 -16
-36 -16 -9 0 -1 69 11 85 12 17 14 17 37 2 30 -22 69 -22 69 -1 0 8 -13 29
-30 46 -16 16 -30 31 -30 33 0 2 15 0 33 -5 17 -4 121 -25 230 -46z m-275 16
c40 -25 42 -36 3 -15 -39 19 -57 11 -72 -32 -12 -38 0 -109 27 -150 13 -21 13
-23 -4 -23 -16 0 -23 16 -41 100 -29 139 -29 140 17 140 20 0 52 -9 70 -20z
m590 -71 l64 -11 -48 -25 c-27 -13 -72 -47 -99 -74 -41 -39 -53 -47 -63 -37
-9 9 -35 12 -78 9 -102 -5 -139 19 -162 102 -14 50 0 47 43 -10 63 -82 114
-100 190 -69 44 19 49 60 9 78 l-25 12 33 17 c40 22 52 22 136 8z m-510 -73
c15 -8 38 -26 51 -40 l24 -26 -50 0 c-46 0 -51 2 -46 20 3 12 -2 29 -12 40
-21 24 -6 26 33 6z m-48 -21 c14 -17 5 -35 -19 -35 -20 0 -41 19 -41 37 0 18
45 17 60 -2z m402 -97 c-8 -10 -27 -12 -71 -8 -96 9 -98 31 -3 40 63 6 95 -8
74 -32z m-232 12 c0 -6 -52 -10 -135 -10 -83 0 -135 4 -135 10 0 6 52 10 135
10 83 0 135 -4 135 -10z m404 -143 l48 -25 -64 -11 c-84 -14 -96 -14 -136 8
l-33 17 25 12 c40 18 35 59 -9 78 -76 31 -127 13 -190 -69 -43 -57 -57 -60
-43 -10 23 83 60 107 162 102 43 -3 69 0 78 9 10 10 22 2 63 -37 27 -27 72
-61 99 -74z m-648 91 c-27 -42 -39 -113 -27 -151 15 -43 33 -51 72 -32 39 21
37 10 -3 -15 -18 -11 -50 -20 -70 -20 -46 0 -46 0 -18 135 11 53 20 99 20 101
0 2 9 4 20 4 19 0 19 -2 6 -22z m189 1 c-12 -18 -87 -69 -103 -69 -13 0 -12 3
3 20 10 11 15 28 12 40 -5 18 0 20 45 20 32 0 47 -4 43 -11z m65 -16 c-11 -14
-26 -47 -32 -71 -7 -29 -18 -46 -30 -50 -25 -6 -23 -32 2 -32 40 0 89 29 120
71 34 47 75 79 103 79 10 0 32 -7 48 -16 41 -21 24 -40 -44 -49 -68 -9 -87
-20 -87 -50 l0 -25 37 20 c43 23 67 25 114 8 33 -11 32 -12 -76 -34 -61 -13
-162 -33 -225 -45 -63 -11 -118 -23 -122 -26 -17 -10 -6 7 22 35 17 17 30 38
30 46 0 21 -39 21 -69 -1 -23 -15 -25 -15 -37 2 -12 16 -20 85 -11 85 2 0 18
-7 36 -16 50 -25 93 -11 149 45 26 27 57 49 70 49 l23 2 -21 -27z m-175 7 c10
-16 -15 -40 -41 -40 -26 0 -31 19 -12 38 15 15 45 16 53 2z m-116 -246 c4 -3
-62 -22 -67 -19 -1 1 0 9 4 18 4 12 13 15 33 11 14 -4 28 -8 30 -10z"/>
<path d="M2700 1835 c-87 -23 -285 -64 -470 -96 -162 -28 -270 -52 -270 -58 0
-3 32 -19 70 -34 45 -18 90 -46 123 -77 l52 -48 -25 -27 c-39 -42 -104 -84
-171 -109 -34 -13 -58 -25 -53 -28 5 -3 63 -16 129 -28 282 -52 617 -121 656
-135 80 -29 81 -28 36 100 -14 39 -31 105 -38 148 -15 90 -3 186 38 302 35 99
38 115 22 114 -8 0 -52 -11 -99 -24z m73 -24 c-3 -13 -11 -18 -21 -14 -34 12
-36 17 -12 24 38 11 38 10 33 -10z m-172 -53 c-17 -18 -30 -37 -28 -43 6 -17
44 -17 71 0 28 18 34 13 37 -30 5 -51 1 -55 -29 -38 -43 25 -95 10 -147 -41
-37 -38 -75 -63 -75 -51 0 2 9 19 19 37 10 18 22 48 26 67 5 21 14 35 26 38
32 9 15 28 -21 25 -41 -3 -62 -18 -100 -71 -39 -53 -69 -67 -118 -55 -50 12
-49 37 3 47 70 15 88 22 99 39 14 23 0 35 -23 21 -31 -19 -84 -24 -116 -10
-29 13 -29 13 40 26 39 6 131 25 205 40 172 37 168 37 131 -1z m135 12 c16
-16 -28 -214 -49 -218 -15 -3 -15 1 3 40 21 47 26 109 10 139 -12 22 -49 25
-69 7 -11 -11 -13 -10 -9 2 4 15 58 38 89 39 8 1 20 -4 25 -9z m-525 -85 l29
-16 -27 -24 -28 -25 28 -25 c20 -18 40 -25 67 -25 56 0 86 17 125 72 19 26 39
48 44 48 19 0 -13 -81 -41 -105 -26 -22 -39 -25 -103 -25 -41 0 -77 -5 -80
-11 -4 -6 -29 11 -61 41 -29 28 -73 59 -96 70 l-42 18 40 7 c21 4 44 8 49 10
25 8 68 4 96 -10z m385 -74 c-10 -11 -15 -27 -12 -38 5 -16 1 -18 -42 -14
l-47 3 39 34 c44 38 93 50 62 15z m71 -7 c2 -7 -3 -19 -12 -28 -13 -12 -21
-14 -37 -5 -19 10 -19 11 -2 30 19 21 45 22 51 3z m-317 -74 c23 -14 7 -21
-56 -23 -48 -2 -59 1 -62 16 -3 14 4 17 50 17 29 0 60 -4 68 -10z m350 -10 c0
-6 -48 -10 -125 -10 -77 0 -125 4 -125 10 0 6 48 10 125 10 77 0 125 -4 125
-10z m-440 -41 c25 -1 25 -1 -4 -9 -37 -12 -66 -38 -59 -56 3 -8 16 -20 30
-27 l24 -13 -39 -18 c-36 -16 -48 -17 -113 -6 l-73 13 43 20 c24 11 66 42 95
68 31 29 55 44 61 38 5 -5 20 -9 35 -10z m226 -25 c28 -36 90 -74 121 -74 10
0 30 7 46 14 29 16 33 11 28 -39 -3 -44 -9 -48 -44 -26 -29 17 -36 19 -52 8
-16 -13 -15 -16 15 -50 l32 -37 -29 6 c-15 3 -113 22 -217 43 -105 21 -186 40
-180 43 27 17 83 19 119 4 43 -18 50 -16 40 13 -6 21 -15 24 -85 36 -19 3 -42
10 -50 15 -13 9 -12 12 4 25 46 35 113 10 155 -59 21 -33 54 -52 100 -58 29
-4 40 17 13 24 -13 4 -23 21 -30 50 -6 24 -21 57 -32 71 -21 27 -21 27 -1 27
11 0 32 -16 47 -36z m98 13 c-3 -11 2 -27 12 -38 33 -37 -29 -17 -73 24 -13
11 -23 23 -23 26 0 3 20 6 45 6 39 0 44 -2 39 -18z m142 -82 c17 -85 18 -107
8 -116 -22 -18 -114 11 -114 35 0 6 5 5 12 -2 18 -18 56 -14 68 7 16 30 12 92
-10 139 -17 39 -18 42 -2 42 14 0 21 -21 38 -105z m-332 84 c14 -7 32 -26 39
-43 39 -84 27 -103 -22 -33 -33 48 -64 73 -102 80 -15 3 -8 5 18 6 23 0 53 -4
67 -10z m260 -5 c9 -8 16 -19 16 -24 0 -16 -28 -18 -49 -3 -17 12 -20 18 -10
29 15 18 24 18 43 -2z m119 -233 c5 -20 3 -20 -40 -5 -16 6 -16 7 2 14 30 13
32 12 38 -9z"/>
<path d="M1326 1027 c-9 -51 -21 -130 -27 -177 -6 -46 -17 -118 -25 -160 -8
-41 -23 -133 -35 -205 -11 -72 -31 -172 -43 -223 -13 -50 -20 -94 -16 -97 4
-3 37 9 73 25 36 16 104 39 152 51 85 22 88 22 170 4 47 -9 119 -33 162 -51
42 -18 79 -31 81 -29 3 3 -4 44 -16 92 -21 86 -70 364 -97 553 -19 128 -45
282 -52 300 -3 8 -12 -9 -22 -40 -22 -71 -76 -172 -107 -201 l-24 -23 -31 30
c-34 33 -95 149 -105 200 -11 58 -20 47 -38 -49z m68 -87 c10 -19 35 -52 55
-74 23 -25 32 -40 24 -43 -7 -3 -13 -17 -14 -31 0 -26 -1 -25 -13 7 -16 44
-39 60 -60 42 -9 -8 -16 -20 -16 -27 0 -24 -18 -15 -24 12 -4 15 -9 24 -12 21
-3 -3 -1 -22 5 -43 10 -37 5 -81 -14 -128 -6 -14 -4 -17 11 -14 24 4 44 44 44
86 0 18 5 42 11 53 18 34 39 5 39 -53 0 -46 -3 -52 -49 -96 -56 -54 -68 -74
-72 -121 -5 -39 12 -51 26 -20 6 12 27 27 48 34 22 7 50 23 63 36 l24 22 0
-21 c0 -12 -12 -32 -26 -45 -65 -56 -93 -155 -58 -205 16 -23 16 -23 -27 -20
-48 3 -46 0 -33 81 8 50 -14 50 -57 0 -17 -21 -29 -30 -25 -20 3 11 11 51 17
90 6 40 21 133 34 207 14 74 29 176 35 225 6 50 14 101 17 115 l6 25 11 -30
c6 -17 19 -46 30 -65z m265 13 c11 -68 10 -83 -4 -118 l-17 -39 -14 27 c-21
38 -50 35 -65 -7 l-13 -35 -12 25 c-12 23 -10 29 30 78 24 30 51 74 61 100 10
25 19 46 20 46 1 0 8 -35 14 -77z m90 -571 c1 -8 -11 0 -25 17 -14 17 -32 31
-39 31 -21 0 -26 -29 -9 -62 22 -42 12 -58 -35 -58 l-40 0 15 28 c28 55 7 127
-55 186 -18 17 -31 40 -31 54 l0 24 31 -26 c17 -14 43 -29 57 -32 36 -9 52
-23 45 -40 -3 -8 1 -14 11 -14 11 0 16 9 16 29 0 49 -19 86 -64 124 -55 45
-73 92 -56 143 15 43 33 40 43 -9 4 -20 10 -54 15 -74 5 -29 12 -39 30 -41 26
-4 26 -4 7 41 -18 43 -19 76 -4 114 10 25 16 0 50 -197 21 -124 38 -231 38
-238z m-237 363 c-5 -113 -29 -102 -31 13 -1 46 1 53 17 50 14 -3 17 -13 14
-63z m106 -134 c50 -47 46 -61 -11 -37 -47 19 -69 55 -74 119 l-4 52 21 -45
c11 -25 42 -65 68 -89z m-169 16 c-9 -20 -27 -36 -57 -49 -24 -11 -47 -17 -50
-13 -3 3 17 28 46 54 34 32 54 59 59 82 l8 34 3 -39 c2 -21 -2 -52 -9 -69z
m61 -202 c0 -78 -4 -136 -10 -140 -6 -4 -10 45 -10 140 0 95 4 144 10 140 6
-4 10 -62 10 -140z m-44 35 c0 -45 -2 -50 -18 -44 -12 3 -28 -2 -40 -13 -20
-18 -21 -18 -13 7 8 30 52 100 63 100 4 0 7 -23 8 -50z m120 -12 c8 -15 14
-35 14 -44 0 -16 -1 -16 -14 1 -8 12 -20 16 -35 12 -19 -5 -21 -1 -21 45 l0
51 21 -19 c12 -10 27 -31 35 -46z m-126 -81 c0 -13 -30 -47 -42 -47 -12 0 -10
54 4 68 13 13 38 -1 38 -21z m130 -17 c0 -24 -10 -31 -31 -19 -22 11 -25 39
-7 57 10 10 15 9 25 -5 7 -9 13 -24 13 -33z m-300 11 c-37 -70 54 -109 143
-61 35 19 37 19 37 2 0 -15 -18 -22 -92 -40 -51 -12 -99 -22 -107 -22 -17 0
-11 101 8 124 18 22 24 20 11 -3z m436 -16 c16 -40 18 -91 4 -100 -6 -4 -53 4
-105 16 -74 18 -95 27 -95 40 0 15 3 15 37 -2 81 -41 171 -12 145 47 -13 28
-14 34 -6 34 3 0 12 -16 20 -35z m-497 -136 c-19 -11 -20 -7 -12 32 l6 34 10
-29 c7 -21 6 -30 -4 -37z m557 -6 c-1 -1 -8 2 -15 6 -10 6 -11 17 -6 37 l8 29
8 -35 c4 -19 7 -36 5 -37z"/>
</g>
</svg>
