<?xml version="1.0" standalone="no"?>
<!DOCTYPE svg PUBLIC "-//W3C//DTD SVG 20010904//EN"
 "http://www.w3.org/TR/2001/REC-SVG-20010904/DTD/svg10.dtd">
<svg version="1.0" xmlns="http://www.w3.org/2000/svg"
 width="300.000000pt" height="235.000000pt" viewBox="0 0 300.000000 235.000000"
 preserveAspectRatio="xMidYMid meet">
<metadata>
Created by potrace 1.10, written by Peter Selinger 2001-2011
</metadata>
<g transform="translate(0.000000,235.000000) scale(0.100000,-0.100000)"
fill="#000000" stroke="none">
<path d="M2830 1225 c0 -25 -1 -25 -24 -10 -22 14 -24 14 -30 -1 -6 -16 8 -33
27 -34 14 0 7 -20 -7 -20 -20 0 -31 -19 -18 -32 7 -7 17 -6 31 1 19 11 21 9
21 -14 0 -19 5 -25 21 -25 18 0 20 4 15 25 -7 29 0 32 25 9 16 -14 18 -14 28
4 9 17 8 22 -9 27 -26 8 -26 22 0 30 23 7 25 18 6 34 -10 9 -16 8 -26 -4 -19
-23 -33 -18 -26 10 5 20 3 25 -14 25 -15 0 -20 -7 -20 -25z"/>
<path d="M2601 1218 c-5 -13 -19 -45 -30 -71 -26 -61 -26 -59 6 -55 21 2 29
11 41 46 7 23 17 42 21 42 4 0 12 -20 19 -45 11 -40 15 -45 41 -45 l29 0 -31
75 c-28 68 -34 75 -59 75 -20 0 -31 -7 -37 -22z"/>
<path d="M200 1175 c0 -48 -20 -69 -43 -46 -13 13 -87 15 -87 2 0 -23 37 -36
100 -36 86 0 110 18 110 82 l0 43 -40 0 -40 0 0 -45z"/>
<path d="M335 1163 c-22 -32 -41 -61 -43 -65 -5 -11 68 -2 81 11 15 15 76 14
82 -2 5 -10 85 -21 85 -11 0 2 -18 27 -40 56 -22 29 -40 56 -40 61 0 4 -19 7
-42 7 -41 0 -45 -3 -83 -57z m83 -21 c-27 -5 -32 2 -18 29 l13 22 13 -24 c11
-22 11 -24 -8 -27z"/>
<path d="M558 1181 c28 -26 42 -47 42 -63 0 -22 4 -25 38 -23 31 1 37 5 35 22
-2 14 12 34 37 57 22 20 40 38 40 41 0 3 -18 5 -40 5 -31 0 -42 -5 -51 -22
-17 -33 -17 -33 -40 -5 -16 22 -29 27 -62 27 l-42 -1 43 -38z"/>
<path d="M804 1158 c33 -58 36 -61 72 -61 35 0 39 3 55 39 11 27 19 34 23 24
3 -8 9 -26 14 -40 8 -21 16 -25 46 -24 34 1 40 6 72 58 19 31 34 59 34 62 0 2
-17 4 -38 4 -37 0 -40 -2 -51 -40 -14 -47 -27 -45 -37 5 -6 33 -9 35 -45 35
-36 0 -39 -2 -50 -40 -7 -22 -15 -40 -19 -40 -4 0 -12 18 -19 40 -11 38 -14
40 -51 40 l-40 0 34 -62z"/>
<path d="M1157 1160 c-26 -33 -47 -62 -47 -64 0 -11 80 0 84 11 7 16 68 17 83
2 13 -13 86 -22 81 -11 -2 4 -21 33 -43 65 -36 51 -44 57 -76 57 -32 0 -41 -6
-82 -60z m103 -12 c0 -4 -11 -8 -25 -8 -23 0 -24 2 -13 26 11 24 13 25 25 8 7
-10 13 -21 13 -26z"/>
<path d="M1390 1158 l0 -63 90 -1 c82 -1 90 1 90 18 0 17 -7 19 -52 17 l-53
-3 1 47 0 47 -38 0 -38 0 0 -62z"/>
<path d="M1597 1158 l1 -62 36 -2 c31 -1 36 2 36 22 0 34 16 37 40 7 16 -21
31 -27 65 -29 25 -2 45 0 45 4 0 4 -21 21 -46 39 l-46 32 48 25 49 25 -51 1
c-39 0 -55 -5 -69 -20 -10 -11 -22 -20 -27 -20 -4 0 -8 9 -8 20 0 16 -7 20
-37 20 l-38 0 2 -62z"/>
<path d="M1850 1157 l0 -62 40 0 40 0 0 62 0 63 -40 0 -40 0 0 -63z"/>
<path d="M1962 1158 l3 -63 35 0 c33 0 35 1 32 33 -4 40 4 40 44 1 26 -25 42
-32 78 -33 l46 -2 0 63 0 63 -35 0 c-34 0 -35 -1 -35 -42 l0 -42 -43 42 c-37
36 -49 42 -85 42 l-43 0 3 -62z"/>
<path d="M2260 1207 c-27 -14 -35 -36 -26 -72 8 -32 58 -45 151 -40 l70 3 3
31 3 31 -55 0 c-31 0 -56 -4 -56 -10 0 -5 9 -10 21 -10 11 0 17 -4 14 -10 -9
-15 -61 -12 -75 5 -6 8 -9 23 -5 36 6 19 11 21 63 14 30 -4 61 -9 69 -12 7 -3
13 2 13 11 0 9 -12 21 -26 26 -36 14 -134 12 -164 -3z"/>
</g>
</svg>
