<?xml version="1.0" standalone="no"?>
<!DOCTYPE svg PUBLIC "-//W3C//DTD SVG 20010904//EN"
 "http://www.w3.org/TR/2001/REC-SVG-20010904/DTD/svg10.dtd">
<svg version="1.0" xmlns="http://www.w3.org/2000/svg"
 width="300.000000pt" height="300.000000pt" viewBox="0 0 300.000000 300.000000"
 preserveAspectRatio="xMidYMid meet">
<metadata>
Created by potrace 1.10, written by Peter Selinger 2001-2011
</metadata>
<g transform="translate(0.000000,300.000000) scale(0.100000,-0.100000)"
fill="#000000" stroke="none">
<path d="M990 1500 l0 -80 58 0 c32 0 63 5 70 12 18 18 14 45 -8 61 -18 12
-18 15 -5 20 18 7 20 38 3 55 -7 7 -36 12 -65 12 l-53 0 0 -80z m85 35 c0 -11
-8 -21 -17 -23 -14 -3 -18 3 -18 23 0 20 4 26 18 23 9 -2 17 -12 17 -23z m-7
-44 c19 -12 11 -55 -10 -59 -15 -3 -18 4 -18 32 0 37 5 42 28 27z"/>
<path d="M1145 1500 l0 -80 63 0 c42 0 61 4 57 11 -4 6 -21 9 -38 7 l-32 -3 0
73 c0 70 -1 72 -25 72 -25 0 -25 -1 -25 -80z"/>
<path d="M1270 1512 c0 -40 5 -73 12 -80 7 -7 31 -12 55 -12 32 0 45 5 53 19
13 25 13 141 0 141 -6 0 -10 -28 -10 -64 0 -67 -13 -92 -44 -80 -13 5 -16 21
-16 75 0 67 -1 69 -25 69 -24 0 -25 -2 -25 -68z"/>
<path d="M1430 1560 c-26 -26 -27 -89 -1 -121 20 -25 80 -31 105 -10 30 25 25
123 -6 143 -24 15 -78 8 -98 -12z m68 -2 c14 -14 16 -96 3 -117 -5 -8 -16 -11
-25 -8 -12 5 -16 20 -16 56 0 74 12 95 38 69z"/>
<path d="M1568 1500 l-3 -80 28 0 c24 0 27 3 21 25 -3 14 -3 32 0 41 10 25 36
-2 36 -37 0 -25 4 -29 26 -29 24 0 26 3 20 32 -3 18 -11 35 -17 38 -6 4 -4 12
6 20 21 17 19 47 -4 60 -11 5 -40 10 -65 10 l-44 0 -4 -80z m82 35 c0 -18 -5
-25 -20 -25 -15 0 -20 7 -20 25 0 18 5 25 20 25 15 0 20 -7 20 -25z"/>
<path d="M1720 1500 c0 -53 4 -80 11 -80 8 0 10 17 7 50 -6 57 0 57 39 -5 18
-29 35 -45 48 -45 18 0 20 8 23 80 1 50 -1 80 -8 80 -6 0 -10 -25 -10 -57 l0
-58 -41 58 c-57 80 -69 76 -69 -23z"/>
<path d="M1886 1564 c-20 -20 -20 -34 -1 -34 8 0 15 6 15 14 0 16 22 27 37 18
17 -11 25 -74 14 -105 -14 -37 -41 -36 -41 3 0 22 5 30 17 30 11 0 13 3 8 9
-6 5 -23 7 -40 3 -27 -6 -30 -11 -30 -45 0 -20 4 -35 10 -33 6 2 20 -1 32 -5
57 -21 112 36 98 100 -12 54 -83 81 -119 45z"/>
</g>
</svg>
