<?xml version="1.0" standalone="no"?>
<!DOCTYPE svg PUBLIC "-//W3C//DTD SVG 20010904//EN"
 "http://www.w3.org/TR/2001/REC-SVG-20010904/DTD/svg10.dtd">
<svg version="1.0" xmlns="http://www.w3.org/2000/svg"
 width="200.000000pt" height="200.000000pt" viewBox="0 0 200.000000 200.000000"
 preserveAspectRatio="xMidYMid meet">
<metadata>
Created by potrace 1.10, written by Peter Selinger 2001-2011
</metadata>
<g transform="translate(0.000000,200.000000) scale(0.100000,-0.100000)"
fill="#000000" stroke="none">
<path d="M823 1116 c4 -28 3 -46 -3 -46 -6 0 -10 16 -10 35 0 32 -2 35 -30 35
-28 0 -30 -3 -30 -35 l0 -35 -70 6 c-56 6 -74 4 -95 -10 -23 -15 -28 -15 -47
-1 -31 21 -97 19 -135 -5 -65 -39 -65 -161 0 -200 39 -24 104 -26 135 -4 20
14 24 14 44 0 27 -19 104 -21 138 -3 21 11 29 11 47 -1 16 -10 37 -12 71 -7
l48 6 -4 65 c-5 75 13 114 53 114 34 0 38 -12 36 -100 l-2 -78 61 -4 60 -3 0
68 c0 65 11 107 29 107 4 0 6 -24 3 -54 -4 -48 -1 -56 24 -85 34 -38 96 -51
144 -31 23 10 34 10 43 1 16 -16 69 -14 96 5 15 11 25 13 30 6 3 -6 41 -12 84
-13 l78 -2 0 154 0 154 -62 3 -62 3 7 -56 6 -56 -29 16 c-39 19 -105 19 -136
-1 -21 -14 -26 -14 -47 0 -35 23 -165 19 -190 -6 -23 -23 -27 -23 -21 2 5 17
0 20 -26 20 -21 0 -31 -5 -31 -16 0 -14 -2 -14 -22 0 -28 20 -82 21 -102 1
-24 -24 -28 -18 -24 38 l3 52 -34 3 -34 3 6 -45z m755 -113 l-3 -108 -45 -3
-45 -3 0 61 c0 52 4 65 23 80 12 10 27 32 33 49 6 17 17 31 25 31 12 0 14 -19
12 -107z m-898 22 c7 -8 25 -15 41 -15 26 0 29 -4 29 -30 0 -29 -1 -30 -22
-16 -13 8 -44 20 -70 27 -27 6 -48 17 -48 24 0 26 51 33 70 10z m-166 -11 c27
-26 18 -34 -39 -34 -38 0 -55 4 -55 13 0 36 65 51 94 21z m311 -54 c0 -38 -3
-70 -7 -70 -5 0 -8 32 -8 70 0 39 4 70 8 70 4 0 8 -31 7 -70z m239 38 c-9 -15
-10 -19 -12 -65 -2 -44 -32 -46 -33 -3 -3 83 -2 88 19 93 23 5 36 -8 26 -25z
m214 20 c26 -26 13 -38 -43 -38 -59 0 -60 1 -45 31 12 22 68 27 88 7z m172 -7
c0 -14 -11 -21 -50 -28 -53 -11 -60 -5 -33 27 23 27 83 28 83 1z m-4 -96 c-8
-32 -51 -44 -73 -22 -21 21 -4 44 41 55 35 10 41 3 32 -33z m-798 20 c56 -17
64 -28 31 -46 -23 -12 -69 2 -69 21 0 15 -64 12 -86 -5 -39 -30 -104 -14 -104
26 0 14 13 17 88 18 52 0 108 -5 140 -14z m662 0 c0 -18 -45 -45 -74 -45 -27
0 -56 23 -56 45 0 10 17 13 65 13 46 0 65 -4 65 -13z"/>
</g>
</svg>
