<?xml version="1.0" standalone="no"?>
<!DOCTYPE svg PUBLIC "-//W3C//DTD SVG 20010904//EN"
 "http://www.w3.org/TR/2001/REC-SVG-20010904/DTD/svg10.dtd">
<svg version="1.0" xmlns="http://www.w3.org/2000/svg"
 width="300.000000pt" height="300.000000pt" viewBox="0 0 300.000000 300.000000"
 preserveAspectRatio="xMidYMid meet">
<metadata>
Created by potrace 1.10, written by Peter Selinger 2001-2011
</metadata>
<g transform="translate(0.000000,300.000000) scale(0.100000,-0.100000)"
fill="#000000" stroke="none">
<path d="M388 1616 c-8 -7 -29 -58 -47 -112 -19 -54 -41 -105 -49 -111 -13
-11 -8 -13 34 -13 31 0 44 3 36 9 -8 4 -12 19 -10 32 2 19 10 25 36 27 26 3
34 -1 41 -20 5 -14 5 -28 -1 -35 -8 -10 2 -13 46 -13 49 0 55 2 44 14 -8 7
-31 64 -52 125 -38 110 -50 125 -78 97z m16 -98 l14 -48 -27 0 -28 0 11 57 c5
31 11 52 13 47 1 -5 9 -30 17 -56z"/>
<path d="M540 1618 c0 -5 5 -8 10 -8 16 0 13 -217 -2 -223 -7 -3 50 -6 126 -6
114 -1 137 1 124 12 -14 10 -15 26 -10 99 l7 87 35 -80 c19 -43 37 -79 41 -79
3 0 19 30 34 68 15 37 31 71 36 76 4 4 10 -31 14 -79 6 -69 5 -89 -6 -96 -9
-5 8 -9 46 -9 36 0 55 4 47 9 -20 12 -47 212 -30 222 19 12 6 17 -33 12 -34
-5 -39 -10 -61 -61 l-25 -57 -28 57 c-27 53 -31 56 -69 60 -45 5 -57 1 -37
-11 10 -7 10 -26 -3 -108 -9 -55 -16 -103 -16 -107 0 -3 -4 -6 -10 -6 -5 0
-10 15 -10 33 0 17 -4 27 -8 21 -8 -13 -66 -44 -82 -44 -6 0 -10 38 -10 105 0
98 1 105 20 105 11 0 20 4 20 8 0 4 -27 8 -60 7 -33 0 -60 -3 -60 -7z"/>
<path d="M1122 1615 c-44 -19 -76 -89 -67 -145 18 -109 179 -125 221 -23 30
70 7 144 -51 169 -42 17 -61 17 -103 -1z m65 -30 c31 -22 46 -76 38 -136 -7
-48 -8 -50 -34 -44 -14 3 -36 17 -48 31 -19 21 -23 37 -23 95 0 65 1 69 23 69
12 0 32 -7 44 -15z"/>
<path d="M1353 1610 c-26 -15 -33 -27 -33 -50 0 -31 11 -45 74 -93 40 -31 43
-39 20 -61 -22 -23 -29 -20 -50 19 -18 35 -19 35 -38 15 -18 -18 -19 -22 -5
-35 39 -40 126 -34 155 10 24 37 11 68 -46 109 -52 37 -65 71 -34 83 16 6 37
-12 47 -41 3 -7 14 -2 27 11 l23 21 -31 16 c-41 21 -70 20 -109 -4z"/>
<path d="M1603 1622 l-103 -3 0 -34 c0 -19 5 -35 10 -35 6 0 10 7 10 15 0 8
14 21 30 30 l30 16 0 -112 c0 -95 -2 -110 -15 -105 -8 3 -15 1 -15 -4 0 -6 27
-10 61 -10 38 0 58 4 54 10 -4 6 -11 8 -16 5 -5 -4 -9 39 -9 105 l0 111 30
-21 c17 -12 30 -26 30 -31 0 -5 4 -9 10 -9 8 0 8 68 -1 73 -2 1 -50 1 -106 -1z"/>
<path d="M1853 1616 c-41 -19 -63 -62 -63 -126 0 -44 5 -56 29 -81 31 -31 83
-39 121 -19 13 7 21 7 25 0 3 -5 12 -10 18 -10 8 0 11 16 8 51 -2 34 1 54 9
59 7 5 -7 9 -34 11 -25 2 -46 1 -46 -3 0 -5 5 -8 10 -8 6 0 10 -18 10 -40 0
-42 -4 -45 -43 -31 -51 20 -62 131 -17 175 l21 21 17 -21 c9 -12 22 -29 27
-39 9 -15 12 -14 33 8 l23 24 -26 17 c-37 24 -84 29 -122 12z"/>
<path d="M2092 1615 c-44 -19 -76 -89 -67 -145 18 -109 179 -125 221 -23 30
70 7 144 -51 169 -42 17 -61 17 -103 -1z m65 -30 c31 -22 46 -76 38 -136 -7
-48 -8 -50 -34 -44 -14 3 -36 17 -48 31 -19 21 -23 37 -23 95 0 65 1 69 23 69
12 0 32 -7 44 -15z"/>
<path d="M2280 1618 c0 -5 5 -8 10 -8 16 0 13 -217 -2 -224 -7 -3 26 -5 74 -3
76 2 89 5 112 26 36 33 50 90 36 141 -16 59 -47 75 -147 75 -46 0 -83 -3 -83
-7z m141 -37 c25 -25 29 -37 29 -83 0 -41 -5 -60 -20 -76 -12 -12 -25 -22 -30
-22 -4 0 -15 -3 -24 -6 -14 -5 -16 8 -16 105 0 125 7 135 61 82z"/>
<path d="M2593 1620 c-12 -5 -29 -20 -38 -33 -22 -34 -6 -70 45 -102 46 -29
58 -50 43 -73 -17 -28 -32 -24 -49 11 -16 34 -18 35 -41 20 -22 -15 -23 -17
-7 -35 35 -37 116 -40 152 -4 31 30 18 68 -42 121 -42 37 -55 55 -51 68 10 25
30 21 54 -10 19 -27 21 -27 38 -10 15 15 16 19 2 32 -19 19 -77 28 -106 15z"/>
</g>
</svg>
