<?xml version="1.0" standalone="no"?>
<!DOCTYPE svg PUBLIC "-//W3C//DTD SVG 20010904//EN"
 "http://www.w3.org/TR/2001/REC-SVG-20010904/DTD/svg10.dtd">
<svg version="1.0" xmlns="http://www.w3.org/2000/svg"
 width="300.000000pt" height="156.000000pt" viewBox="0 0 300.000000 156.000000"
 preserveAspectRatio="xMidYMid meet">
<metadata>
Created by potrace 1.10, written by Peter Selinger 2001-2011
</metadata>
<g transform="translate(0.000000,156.000000) scale(0.100000,-0.100000)"
fill="#000000" stroke="none">
<path d="M270 848 c0 -8 9 -42 21 -77 18 -52 25 -62 42 -59 14 2 23 14 29 38
16 64 21 66 33 15 8 -39 16 -51 32 -53 18 -3 25 7 44 67 13 39 20 73 17 76
-14 15 -37 -11 -43 -48 -11 -64 -19 -67 -30 -12 -9 39 -16 51 -32 53 -22 3
-25 -3 -38 -66 -9 -42 -17 -34 -30 26 -7 31 -16 48 -28 50 -9 2 -17 -3 -17
-10z"/>
<path d="M524 792 c-16 -36 -30 -70 -32 -74 -2 -4 6 -8 17 -8 12 0 24 7 27 15
8 20 64 19 79 -1 6 -9 19 -15 27 -13 27 6 -30 131 -64 140 -23 6 -27 1 -54
-59z m71 -9 c5 -20 3 -23 -19 -23 -30 0 -30 0 -14 35 12 27 22 24 33 -12z"/>
<path d="M1017 854 c-4 -4 -7 -38 -7 -76 0 -62 2 -68 20 -68 19 0 21 5 18 72
-3 65 -13 89 -31 72z"/>
<path d="M1080 784 c0 -58 3 -74 14 -74 11 0 16 15 18 52 l3 53 38 -53 c26
-35 46 -52 60 -52 21 0 22 4 21 72 -1 64 -3 73 -20 73 -16 0 -18 -7 -15 -52 1
-29 0 -53 -2 -53 -3 0 -19 22 -36 49 -20 31 -40 50 -56 54 -25 4 -25 3 -25
-69z"/>
<path d="M1286 839 c-20 -16 -26 -29 -26 -58 0 -47 28 -75 73 -74 104 4 97 1
97 44 0 39 0 39 -40 39 -30 0 -40 -4 -40 -16 0 -11 6 -14 20 -9 22 7 26 -5 8
-23 -20 -20 -56 -14 -74 13 -15 23 -15 27 0 50 17 25 59 34 71 15 9 -15 47
-12 43 3 -6 17 -48 37 -79 37 -15 0 -38 -9 -53 -21z"/>
<path d="M1503 848 c-9 -15 7 -25 32 -20 25 4 25 3 25 -57 0 -54 2 -61 20 -61
18 0 20 7 20 60 0 57 1 60 25 60 14 0 25 6 25 13 0 13 -138 18 -147 5z"/>
<path d="M1670 784 c0 -69 2 -74 21 -74 18 0 21 5 17 30 -4 30 -4 30 40 30 44
0 44 0 39 -30 -6 -25 -3 -30 13 -30 18 0 20 7 20 74 0 65 -2 74 -17 71 -13 -2
-17 -10 -15 -29 3 -25 0 -26 -41 -26 -40 0 -43 2 -42 26 0 18 -6 28 -17 30
-16 2 -18 -7 -18 -72z"/>
<path d="M1913 852 l-63 -3 0 -69 0 -70 70 0 c58 0 70 3 70 16 0 14 -8 16 -50
11 -45 -5 -50 -4 -50 13 0 17 7 20 45 20 35 0 45 4 45 16 0 14 -7 15 -45 10
-41 -7 -45 -5 -45 13 0 18 6 21 50 21 28 0 50 4 50 9 0 15 -10 16 -77 13z"/>
<path d="M2042 850 c-32 -13 -47 -52 -36 -92 8 -26 18 -36 50 -47 34 -12 44
-12 69 0 41 20 58 57 44 98 -16 46 -71 63 -127 41z m82 -36 c21 -20 20 -37 -2
-64 -38 -47 -102 5 -72 59 13 25 52 28 74 5z"/>
<path d="M2200 783 c0 -68 2 -73 21 -73 17 0 20 5 16 26 -4 23 -2 25 32 22 31
-3 36 -6 34 -25 -2 -18 2 -23 22 -23 18 0 23 4 18 15 -3 9 -6 39 -7 68 l-1 52
-68 5 -67 5 0 -72z m108 25 c3 -15 -4 -18 -37 -18 -39 0 -53 14 -34 34 14 14
68 1 71 -16z"/>
<path d="M2377 854 c-4 -4 -7 -38 -7 -76 0 -58 3 -68 18 -68 15 0 17 10 16 72
-1 66 -10 89 -27 72z"/>
<path d="M2495 852 l-60 -3 0 -69 0 -70 68 0 c51 0 68 3 64 13 -3 7 -21 11
-51 10 -39 -1 -46 2 -46 18 0 16 7 19 50 19 41 0 48 3 43 16 -5 13 -15 15 -49
9 -40 -6 -44 -4 -44 14 0 18 6 21 50 21 28 0 50 4 50 9 0 15 -10 16 -75 13z"/>
<path d="M2602 844 c-41 -28 -20 -63 46 -73 48 -8 59 -41 13 -41 -17 0 -31 5
-31 10 0 6 -11 10 -25 10 -45 0 -25 -31 29 -44 37 -9 93 10 99 34 7 29 -13 48
-61 57 -24 4 -44 13 -45 18 -3 14 43 19 56 6 13 -13 47 -14 47 -2 0 17 -44 41
-75 41 -17 0 -41 -7 -53 -16z"/>
<path d="M670 780 c0 -63 2 -70 20 -70 15 0 20 7 20 25 0 22 4 25 35 25 31 0
35 -3 35 -25 0 -18 5 -25 20 -25 15 0 20 7 20 24 0 14 -5 28 -10 31 -8 5 -7
11 0 20 6 8 10 24 8 37 -3 21 -8 23 -75 26 l-73 3 0 -71z m108 28 c3 -15 -4
-18 -32 -18 -30 0 -36 4 -36 21 0 17 5 20 32 17 22 -2 34 -9 36 -20z"/>
<path d="M845 780 c0 -60 2 -70 17 -70 13 0 18 8 18 25 0 22 4 25 39 25 38 0
71 19 71 41 0 6 -5 19 -10 30 -9 16 -22 19 -73 19 l-62 0 0 -70z m102 35 c7
-20 4 -22 -32 -27 -25 -2 -31 1 -33 20 -3 19 1 22 28 22 18 0 33 -6 37 -15z"/>
</g>
</svg>
